<?xml version="1.0" encoding="UTF-8"?>
<!DOCTYPE svg PUBLIC "-//W3C//DTD SVG 1.1//EN" "http://www.w3.org/Graphics/SVG/1.1/DTD/svg11.dtd">
<svg xmlns="http://www.w3.org/2000/svg" version="1.1" width="580px" height="580px" style="shape-rendering:geometricPrecision; text-rendering:geometricPrecision; image-rendering:optimizeQuality; fill-rule:evenodd; clip-rule:evenodd" xmlns:xlink="http://www.w3.org/1999/xlink">
<g><path style="opacity:0.775" fill="#ae3520" d="M 395.5,64.5 C 396.108,59.0557 395.442,54.0557 393.5,49.5C 393.811,48.5222 394.478,47.8555 395.5,47.5C 396.816,53.3204 396.816,58.9871 395.5,64.5 Z"/></g>
<g><path style="opacity:1" fill="#762416" d="M 210.5,59.5 C 211.326,68.2617 212.993,77.095 215.5,86C 215.339,87.9564 215.006,89.9564 214.5,92C 216.597,103.631 219.93,114.964 224.5,126C 224.355,126.772 224.022,127.439 223.5,128C 224.787,134.317 226.453,140.484 228.5,146.5C 228.786,149.834 228.786,153 228.5,156C 228.808,157.459 229.475,158.626 230.5,159.5C 232.826,163.745 234.326,168.745 235,174.5C 235.383,175.056 235.883,175.389 236.5,175.5C 236.428,179.14 237.761,181.973 240.5,184C 239.2,185.579 239.534,186.745 241.5,187.5C 242.232,188.808 243.066,190.142 244,191.5C 244.953,189.627 246.12,189.294 247.5,190.5C 246.046,192.263 246.38,193.597 248.5,194.5C 249.232,195.808 250.066,197.142 251,198.5C 251.953,196.627 253.12,196.294 254.5,197.5C 255.167,197.5 255.833,197.5 256.5,197.5C 255.602,198.158 254.602,198.824 253.5,199.5C 253.808,200.308 254.308,200.975 255,201.5C 255.816,200.177 256.983,199.511 258.5,199.5C 257.065,200.985 257.232,202.318 259,203.5C 259.333,203.167 259.667,202.833 260,202.5C 261.067,203.191 262.234,203.691 263.5,204C 260.507,204.427 260.007,205.594 262,207.5C 264.087,206.603 266.254,205.936 268.5,205.5C 268.938,205.435 269.272,205.601 269.5,206C 267,206.833 266.833,208 269,209.5C 269.388,208.572 270.055,207.905 271,207.5C 271.965,207.93 272.465,208.596 272.5,209.5C 270.237,210.59 270.07,211.923 272,213.5C 273.458,211.476 275.291,211.309 277.5,213C 274.507,213.427 274.007,214.594 276,216.5C 277.333,215.167 278.667,215.167 280,216.5C 281,215.5 282,214.5 283,213.5C 283.333,214.167 283.667,214.833 284,215.5C 285.242,213.459 287.075,212.293 289.5,212C 288.928,207.558 288.595,203.058 288.5,198.5C 289.506,198.062 289.506,197.396 288.5,196.5C 289.239,196.631 289.906,196.464 290.5,196C 290.167,193.667 289.833,191.333 289.5,189C 291.935,188.925 292.602,188.092 291.5,186.5C 292.534,185.313 293.867,184.48 295.5,184C 295.167,181.667 294.833,179.333 294.5,177C 295.5,176.667 296.5,176.333 297.5,176C 297.167,175 296.833,174 296.5,173C 297.167,172.667 297.833,172.333 298.5,172C 298.167,169.667 297.833,167.333 297.5,165C 298.5,164.667 299.5,164.333 300.5,164C 300.5,162.333 300.5,160.667 300.5,159C 301.376,157.415 302.709,156.415 304.5,156C 304.167,155 303.833,154 303.5,153C 304.5,152.667 305.5,152.333 306.5,152C 305.359,151.259 305.359,150.425 306.5,149.5C 307.696,147.492 309.696,145.659 312.5,144C 311.944,143.617 311.611,143.117 311.5,142.5C 312.738,142.19 312.738,141.69 311.5,141C 312.448,140.517 313.448,140.351 314.5,140.5C 314.5,139.5 314.5,138.5 314.5,137.5C 315.873,137.657 317.207,137.49 318.5,137C 317.284,133.429 318.95,131.095 323.5,130C 323.932,126.884 323.932,123.384 323.5,119.5C 324.534,118.313 325.867,117.48 327.5,117C 326.944,116.617 326.611,116.117 326.5,115.5C 327.738,115.19 327.738,114.69 326.5,114C 327.448,113.517 328.448,113.351 329.5,113.5C 329.5,112.5 329.5,111.5 329.5,110.5C 330.873,110.657 332.207,110.49 333.5,110C 333.167,109 332.833,108 332.5,107C 333.448,106.517 334.448,106.351 335.5,106.5C 335.5,105.5 335.5,104.5 335.5,103.5C 336.873,103.657 338.207,103.49 339.5,103C 338.944,102.617 338.611,102.117 338.5,101.5C 340.134,100.419 341.467,99.0855 342.5,97.5C 343.568,96.5655 344.901,96.2322 346.5,96.5C 346.238,95.0222 346.571,93.6888 347.5,92.5C 348.086,92.7093 348.586,93.0426 349,93.5C 350.242,91.4593 352.075,90.2927 354.5,90C 353.944,89.6174 353.611,89.1174 353.5,88.5C 354.467,87.1938 355.801,86.5271 357.5,86.5C 357.5,85.1667 357.5,83.8333 357.5,82.5C 358.873,82.6567 360.207,82.49 361.5,82C 360.944,81.6174 360.611,81.1174 360.5,80.5C 361.738,80.19 361.738,79.69 360.5,79C 361.449,78.3828 362.282,78.5494 363,79.5C 364.186,77.3234 366.019,76.3234 368.5,76.5C 368.354,74.0576 369.187,73.3909 371,74.5C 371.923,73.2412 372.757,71.9079 373.5,70.5C 374.167,70.8333 374.833,71.1667 375.5,71.5C 376.167,70.1667 376.833,68.8333 377.5,67.5C 379.026,67.9943 380.359,68.661 381.5,69.5C 380.766,70.7079 380.433,72.0413 380.5,73.5C 379.833,73.5 379.5,73.8333 379.5,74.5C 378.503,74.4701 377.836,74.9701 377.5,76C 377.39,79.0603 377.723,81.8937 378.5,84.5C 378.598,108.215 378.598,132.049 378.5,156C 379.858,157.832 380.192,159.665 379.5,161.5C 381.46,163.291 382.793,165.457 383.5,168C 383.043,168.414 382.709,168.914 382.5,169.5C 384.316,171.29 385.649,173.29 386.5,175.5C 385.065,176.985 385.232,178.318 387,179.5C 388.107,178.288 388.607,178.621 388.5,180.5C 388.574,182.411 389.574,183.578 391.5,184C 390.818,186.188 391.152,188.355 392.5,190.5C 392.585,193.895 392.918,196.895 393.5,199.5C 393.598,201.882 393.598,204.382 393.5,207C 394.858,208.832 395.192,210.665 394.5,212.5C 395.035,214.271 395.869,214.604 397,213.5C 397.236,215.811 398.069,217.811 399.5,219.5C 399.574,221.411 400.574,222.578 402.5,223C 400,223.833 399.833,225 402,226.5C 402.667,225.833 403.333,225.167 404,224.5C 405.452,229.092 407.452,233.092 410,236.5C 411.147,237.458 412.147,237.125 413,235.5C 414.603,239.987 416.77,244.154 419.5,248C 418.332,249.871 418.832,251.371 421,252.5C 421.333,254.5 421.667,256.5 422,258.5C 422.671,259.252 423.504,259.586 424.5,259.5C 423.854,263.914 425.854,266.747 430.5,268C 427.507,268.427 427.007,269.594 429,271.5C 430.154,269.043 431.488,269.043 433,271.5C 434,270.5 435,269.5 436,268.5C 437.22,270.857 438.053,270.524 438.5,267.5C 439.873,267.657 441.207,267.49 442.5,267C 442.167,266 441.833,265 441.5,264C 443.119,263.764 444.119,262.931 444.5,261.5C 444.5,261.167 444.5,260.833 444.5,260.5C 445.609,259.71 446.942,259.21 448.5,259C 447.209,257.006 447.209,255.172 448.5,253.5C 449.506,253.062 449.506,252.396 448.5,251.5C 449.552,251.649 450.552,251.483 451.5,251C 450.209,249.006 450.209,247.172 451.5,245.5C 452.506,245.062 452.506,244.396 451.5,243.5C 452.552,243.649 453.552,243.483 454.5,243C 454.167,242 453.833,241 453.5,240C 454.06,238.38 455.393,236.88 457.5,235.5C 458.189,234.226 459.023,234.226 460,235.5C 460.923,234.241 461.757,232.908 462.5,231.5C 463.167,231.833 463.833,232.167 464.5,232.5C 465.167,231.167 465.833,229.833 466.5,228.5C 468.62,229.872 469.62,229.205 469.5,226.5C 470.873,226.657 472.207,226.49 473.5,226C 473.167,225.667 472.833,225.333 472.5,225C 473.938,223.431 475.438,221.931 477,220.5C 477.513,222.521 478.68,224.021 480.5,225C 480.043,225.414 479.709,225.914 479.5,226.5C 486.732,237.911 490.066,250.244 489.5,263.5C 490.08,267.142 490.58,270.809 491,274.5C 491.278,275.416 491.778,276.082 492.5,276.5C 494.021,280.397 495.355,284.397 496.5,288.5C 496.585,291.895 496.918,294.895 497.5,297.5C 498.016,301.912 498.349,306.578 498.5,311.5C 499.815,313.823 499.815,316.157 498.5,318.5C 498.599,320.799 499.266,322.799 500.5,324.5C 500.541,326.745 501.375,327.412 503,326.5C 503.216,328.384 503.883,330.051 505,331.5C 505.534,336.077 506.7,340.411 508.5,344.5C 507.873,345.417 507.539,346.417 507.5,347.5C 507.167,348.167 506.833,348.833 506.5,349.5C 505.503,349.47 504.836,349.97 504.5,351C 504.39,354.06 504.723,356.894 505.5,359.5C 505.991,364.255 505.991,368.922 505.5,373.5C 504.503,373.47 503.836,373.97 503.5,375C 503.39,378.06 503.723,380.894 504.5,383.5C 506.136,387.304 505.469,391.137 502.5,395C 503.13,397.816 502.464,400.482 500.5,403C 500.833,403.333 501.167,403.667 501.5,404C 500.029,405.583 499.029,407.417 498.5,409.5C 497.503,409.47 496.836,409.97 496.5,411C 496.644,414.4 496.978,417.733 497.5,421C 495.408,421.953 495.075,423.286 496.5,425C 495.349,427.464 494.349,429.964 493.5,432.5C 492.833,432.5 492.5,432.833 492.5,433.5C 490.158,434.211 489.825,435.544 491.5,437.5C 490.596,438.209 490.263,439.209 490.5,440.5C 489.833,440.5 489.5,440.833 489.5,441.5C 487.348,442.077 487.015,443.244 488.5,445C 487.279,447.034 485.945,448.867 484.5,450.5C 482.97,452.52 482.303,454.52 482.5,456.5C 480.348,457.077 480.015,458.244 481.5,460C 478.859,463.447 476.859,467.281 475.5,471.5C 472.74,473.254 470.74,475.588 469.5,478.5C 467.043,479.969 465.376,482.136 464.5,485C 465.056,485.383 465.389,485.883 465.5,486.5C 463.333,489.073 461,491.406 458.5,493.5C 456.704,495.35 454.038,496.35 450.5,496.5C 450.649,497.552 450.483,498.552 450,499.5C 449.667,499.167 449.333,498.833 449,498.5C 447.535,500.915 445.368,501.915 442.5,501.5C 442.649,502.552 442.483,503.552 442,504.5C 440.251,506.667 438.417,508.667 436.5,510.5C 435.167,510.5 433.833,510.5 432.5,510.5C 432.5,511.5 432.5,512.5 432.5,513.5C 429.198,514.477 425.865,515.477 422.5,516.5C 421.287,516.747 420.62,517.414 420.5,518.5C 419.167,518.5 417.833,518.5 416.5,518.5C 416.5,519.5 416.5,520.5 416.5,521.5C 414.176,521.995 412.009,521.995 410,521.5C 409.055,521.905 408.388,522.572 408,523.5C 406.989,522.663 405.822,522.33 404.5,522.5C 404.5,523.5 404.5,524.5 404.5,525.5C 402.517,525.157 401.183,525.824 400.5,527.5C 400.5,528.167 400.167,528.5 399.5,528.5C 395.189,527.597 390.689,527.597 386,528.5C 384.97,528.836 384.47,529.503 384.5,530.5C 384.5,531.167 384.167,531.5 383.5,531.5C 380.382,531.392 377.216,531.392 374,531.5C 372.97,531.836 372.47,532.503 372.5,533.5C 367.052,533.574 361.386,534.241 355.5,535.5C 353.725,535.021 351.891,534.687 350,534.5C 348.97,534.836 348.47,535.503 348.5,536.5C 348.5,537.167 348.167,537.5 347.5,537.5C 344.382,537.392 341.216,537.392 338,537.5C 336.97,537.836 336.47,538.503 336.5,539.5C 333.249,540.325 329.749,540.325 326,539.5C 324.079,541.003 321.912,541.669 319.5,541.5C 311.785,541.402 303.951,541.402 296,541.5C 290.214,540.804 284.548,539.471 279,537.5C 277.93,537.528 277.097,537.861 276.5,538.5C 258.833,537.167 241.167,537.167 223.5,538.5C 219.811,536.916 215.977,536.582 212,537.5C 209.974,534.6 207.474,533.933 204.5,535.5C 203.596,534.791 203.263,533.791 203.5,532.5C 198.167,531.167 192.833,529.833 187.5,528.5C 187.423,527.25 186.756,526.417 185.5,526C 183.559,525.257 181.726,525.424 180,526.5C 179.517,525.552 179.351,524.552 179.5,523.5C 175.723,523.557 172.389,522.39 169.5,520C 167.613,519.22 165.946,519.387 164.5,520.5C 161.901,518.369 158.901,517.036 155.5,516.5C 155.5,515.5 155.5,514.5 155.5,513.5C 152.442,513.288 149.942,511.955 148,509.5C 145.553,504.068 142.053,499.568 137.5,496C 137.833,495.667 138.167,495.333 138.5,495C 134.5,493.333 130.5,491.667 126.5,490C 125.12,488.676 124.786,487.343 125.5,486C 123.333,483.248 121.333,480.414 119.5,477.5C 118.194,476.533 117.527,475.199 117.5,473.5C 116.167,473.5 114.833,473.5 113.5,473.5C 112.432,472.566 111.099,472.232 109.5,472.5C 108.921,468.418 107.588,464.752 105.5,461.5C 106.461,459.562 105.795,458.062 103.5,457C 104.299,455.251 103.632,453.918 101.5,453C 102.299,451.251 101.632,449.918 99.5,449C 100.299,447.251 99.6324,445.918 97.5,445C 98.299,443.251 97.6324,441.918 95.5,441C 95.8333,440.667 96.1667,440.333 96.5,440C 95.0636,437.818 93.3969,435.984 91.5,434.5C 89.1685,429.87 86.5018,425.037 83.5,420C 84.0606,418.434 83.3939,417.101 81.5,416C 81.8333,415.667 82.1667,415.333 82.5,415C 78.9684,409.19 74.9684,403.357 70.5,397.5C 69.1938,396.533 68.5271,395.199 68.5,393.5C 69.552,393.649 70.552,393.483 71.5,393C 71.1667,392 70.8333,391 70.5,390C 72.935,389.925 73.6016,389.092 72.5,387.5C 73.5336,386.313 74.867,385.48 76.5,385C 76.1667,384 75.8333,383 75.5,382C 76.5,381.667 77.5,381.333 78.5,381C 78.5,378.667 78.5,376.333 78.5,374C 79.5,373.667 80.5,373.333 81.5,373C 81.1667,372 80.8333,371 80.5,370C 81.1667,369.667 81.8333,369.333 82.5,369C 81.7007,366.772 82.7007,365.439 85.5,365C 85.1667,364 84.8333,363 84.5,362C 85.1667,361.667 85.8333,361.333 86.5,361C 86.1667,360 85.8333,359 85.5,358C 86.1667,357.667 86.8333,357.333 87.5,357C 87.1667,356 86.8333,355 86.5,354C 87.1667,353.667 87.8333,353.333 88.5,353C 87.7007,350.772 88.7007,349.439 91.5,349C 90.944,348.617 90.6107,348.117 90.5,347.5C 91.5336,346.313 92.867,345.48 94.5,345C 94.1667,344 93.8333,343 93.5,342C 94.5,341.667 95.5,341.333 96.5,341C 96.1667,340 95.8333,339 95.5,338C 96.1667,337.667 96.8333,337.333 97.5,337C 97.1667,312 96.8333,287 96.5,262C 97.5,261.667 98.5,261.333 99.5,261C 99.1667,245.333 98.8333,229.667 98.5,214C 99.0944,213.536 99.7611,213.369 100.5,213.5C 100.799,215.455 101.799,216.789 103.5,217.5C 101.237,218.59 101.07,219.923 103,221.5C 103.667,220.833 104.333,220.167 105,219.5C 105.772,220.849 106.939,221.682 108.5,222C 105.507,222.427 105.007,223.594 107,225.5C 107.816,224.177 108.983,223.511 110.5,223.5C 109.438,224.575 109.438,225.575 110.5,226.5C 111.451,225.674 112.451,225.508 113.5,226C 112.592,230.121 112.759,234.288 114,238.5C 115.583,240.911 116.583,243.578 117,246.5C 117.671,247.252 118.504,247.586 119.5,247.5C 119.196,248.15 118.863,248.817 118.5,249.5C 119.58,252.121 121.247,254.288 123.5,256C 122.549,256.718 122.383,257.551 123,258.5C 123.667,259.833 124.333,259.833 125,258.5C 125.333,259.833 125.667,261.167 126,262.5C 126.671,263.252 127.504,263.586 128.5,263.5C 127.375,264.652 127.375,265.652 128.5,266.5C 129.941,269.724 131.608,272.724 133.5,275.5C 133.5,275.833 133.5,276.167 133.5,276.5C 134.964,282.06 137.298,287.227 140.5,292C 139.549,292.718 139.383,293.551 140,294.5C 140.667,295.833 141.333,295.833 142,294.5C 141.946,297.191 143.113,299.024 145.5,300C 144.391,301.813 145.058,302.646 147.5,302.5C 148.094,305.398 148.594,308.065 149,310.5C 149.333,310.833 149.667,311.167 150,311.5C 150.71,310.027 151.876,309.36 153.5,309.5C 152.847,310.807 152.18,312.14 151.5,313.5C 151.855,314.522 152.522,315.189 153.5,315.5C 154.232,316.808 155.066,318.142 156,319.5C 157.392,317.158 158.225,317.158 158.5,319.5C 159.001,322.867 160.168,323.2 162,320.5C 163.727,320.646 163.894,321.313 162.5,322.5C 163.517,325.028 164.684,325.028 166,322.5C 166.353,323.672 166.187,324.838 165.5,326C 166.985,328.039 167.819,330.206 168,332.5C 168.388,331.572 169.055,330.905 170,330.5C 170.355,331.509 171.188,332.176 172.5,332.5C 171.602,333.158 170.602,333.824 169.5,334.5C 170.517,337.028 171.684,337.028 173,334.5C 173.964,338.005 175.464,338.338 177.5,335.5C 178.895,336.815 179.895,336.481 180.5,334.5C 181.825,333.047 182.658,333.381 183,335.5C 184.844,333.692 186.677,332.026 188.5,330.5C 188.5,330.167 188.5,329.833 188.5,329.5C 189.609,328.71 190.942,328.21 192.5,328C 191.359,327.259 191.359,326.425 192.5,325.5C 193.696,323.492 195.696,321.659 198.5,320C 198.167,319 197.833,318 197.5,317C 199.935,316.925 200.602,316.092 199.5,314.5C 200.534,313.313 201.867,312.48 203.5,312C 203.167,311 202.833,310 202.5,309C 203.167,308.667 203.833,308.333 204.5,308C 203.167,296.667 203.167,285.333 204.5,274C 203.12,272.676 202.786,271.343 203.5,270C 201.606,268.899 200.939,267.566 201.5,266C 200.922,264.583 199.922,263.75 198.5,263.5C 198.439,261.408 197.439,259.908 195.5,259C 196.299,257.251 195.632,255.918 193.5,255C 193.833,254.667 194.167,254.333 194.5,254C 192.883,251.389 190.883,249.222 188.5,247.5C 188.611,246.883 188.944,246.383 189.5,246C 187.322,242.007 184.655,238.507 181.5,235.5C 181.5,235.167 181.5,234.833 181.5,234.5C 181.938,234.565 182.272,234.399 182.5,234C 180.991,230.881 178.991,227.714 176.5,224.5C 175.131,222.932 174.131,221.099 173.5,219C 173.833,218.667 174.167,218.333 174.5,218C 173.064,215.818 171.397,213.984 169.5,212.5C 169.141,210.629 168.141,209.129 166.5,208C 167.354,206.215 166.687,205.049 164.5,204.5C 162.276,201.868 160.943,199.035 160.5,196C 160.736,186.549 160.736,177.049 160.5,167.5C 160.598,165.118 160.598,162.618 160.5,160C 161.167,159.667 161.833,159.333 162.5,159C 161.926,157.238 161.593,155.405 161.5,153.5C 162.552,153.649 163.552,153.483 164.5,153C 163.619,150.889 163.619,148.722 164.5,146.5C 165.833,145.5 165.833,144.5 164.5,143.5C 165.534,142.313 166.867,141.48 168.5,141C 168.167,140 167.833,139 167.5,138C 168.5,137.667 169.5,137.333 170.5,137C 170.167,136 169.833,135 169.5,134C 170.167,133.667 170.833,133.333 171.5,133C 171.167,132 170.833,131 170.5,130C 172.935,129.925 173.602,129.092 172.5,127.5C 173.534,126.313 174.867,125.48 176.5,125C 176.5,122.667 176.5,120.333 176.5,118C 178.119,117.764 179.119,116.931 179.5,115.5C 179.5,115.167 179.5,114.833 179.5,114.5C 180.873,114.657 182.207,114.49 183.5,114C 183.167,113 182.833,112 182.5,111C 183.5,110.667 184.5,110.333 185.5,110C 185.167,109 184.833,108 184.5,107C 185.5,106.667 186.5,106.333 187.5,106C 187.167,105 186.833,104 186.5,103C 187.448,102.517 188.448,102.351 189.5,102.5C 190.167,99.8333 190.833,97.1667 191.5,94.5C 192.5,94.5 193.5,94.5 194.5,94.5C 194.737,93.209 194.404,92.209 193.5,91.5C 193.5,91.1667 193.5,90.8333 193.5,90.5C 195.536,88.7943 196.536,86.461 196.5,83.5C 197.873,83.6567 199.207,83.49 200.5,83C 200.5,80.6667 200.5,78.3333 200.5,76C 201.5,75.6667 202.5,75.3333 203.5,75C 203.167,74 202.833,73 202.5,72C 203.5,71.6667 204.5,71.3333 205.5,71C 205.167,70 204.833,69 204.5,68C 207.142,67.4374 207.809,65.9374 206.5,63.5C 207.09,62.2011 208.09,61.3678 209.5,61C 208.288,59.8932 208.621,59.3932 210.5,59.5 Z M 429.5,373.5 C 430.461,375.265 430.795,377.265 430.5,379.5C 429.469,400.417 426.635,421.083 422,441.5C 418.652,452.531 413.485,462.531 406.5,471.5C 405.094,471.973 404.427,472.973 404.5,474.5C 399.195,480.14 393.861,485.807 388.5,491.5C 385.911,492.419 383.911,494.086 382.5,496.5C 362.653,509.952 340.653,517.786 316.5,520C 285.244,524.393 254.911,520.726 225.5,509C 216.479,505.154 207.479,501.321 198.5,497.5C 197.71,496.599 196.71,495.932 195.5,495.5C 180.155,488.647 167.321,478.647 157,465.5C 145.297,439.692 137.797,412.692 134.5,384.5C 137.45,386.115 140.116,388.115 142.5,390.5C 142.973,391.906 143.973,392.573 145.5,392.5C 149.183,396.18 153.183,399.514 157.5,402.5C 157.973,403.906 158.973,404.573 160.5,404.5C 176.075,417.625 193.742,427.125 213.5,433C 235.353,436.156 250.853,427.656 260,407.5C 275.618,363.781 280.951,318.781 276,272.5C 292.204,287.693 306.537,304.36 319,322.5C 321.883,327.599 324.217,332.933 326,338.5C 328.99,352.773 331.657,367.106 334,381.5C 339.435,412.134 356.268,420.967 384.5,408C 401.109,398.552 416.109,387.052 429.5,373.5 Z"/></g>
<g><path style="opacity:1" fill="#942d1b" d="M 379.5,74.5 C 379.167,77.8333 378.833,81.1667 378.5,84.5C 377.723,81.8937 377.39,79.0603 377.5,76C 377.836,74.9701 378.503,74.4701 379.5,74.5 Z"/></g>
<g><path style="opacity:1" fill="#db4328" d="M 376.5,64.5 C 376.47,65.4972 376.97,66.1639 378,66.5C 379.301,65.1068 380.801,64.6068 382.5,65C 381.542,66.1475 381.875,67.1475 383.5,68C 382.956,68.7172 382.289,69.2172 381.5,69.5C 380.359,68.661 379.026,67.9943 377.5,67.5C 376.833,68.8333 376.167,70.1667 375.5,71.5C 374.833,71.1667 374.167,70.8333 373.5,70.5C 372.757,71.9079 371.923,73.2412 371,74.5C 369.187,73.3909 368.354,74.0576 368.5,76.5C 366.019,76.3234 364.186,77.3234 363,79.5C 362.282,78.5494 361.449,78.3828 360.5,79C 361.738,79.69 361.738,80.19 360.5,80.5C 355.424,80.6669 353.091,83.3336 353.5,88.5C 353.611,89.1174 353.944,89.6174 354.5,90C 352.075,90.2927 350.242,91.4593 349,93.5C 348.586,93.0426 348.086,92.7093 347.5,92.5C 346.571,93.6888 346.238,95.0222 346.5,96.5C 344.901,96.2322 343.568,96.5655 342.5,97.5C 339.5,97.1667 338.167,98.5 338.5,101.5C 338.611,102.117 338.944,102.617 339.5,103C 338.207,103.49 336.873,103.657 335.5,103.5C 335.5,104.5 335.5,105.5 335.5,106.5C 334.448,106.351 333.448,106.517 332.5,107C 332.833,108 333.167,109 333.5,110C 332.207,110.49 330.873,110.657 329.5,110.5C 329.5,111.5 329.5,112.5 329.5,113.5C 328.448,113.351 327.448,113.517 326.5,114C 327.738,114.69 327.738,115.19 326.5,115.5C 324.088,115.694 323.088,117.027 323.5,119.5C 322.833,119.833 322.167,120.167 321.5,120.5C 320.498,117.214 321.498,114.381 324.5,112C 324.167,111.667 323.833,111.333 323.5,111C 324.5,110.667 325.5,110.333 326.5,110C 327.255,107.867 328.588,106.2 330.5,105C 329.748,104.329 329.414,103.496 329.5,102.5C 344.563,89.1053 360.23,76.4386 376.5,64.5 Z"/></g>
<g><path style="opacity:1" fill="#bf3a23" d="M 360.5,80.5 C 360.611,81.1174 360.944,81.6174 361.5,82C 360.207,82.49 358.873,82.6567 357.5,82.5C 357.5,83.8333 357.5,85.1667 357.5,86.5C 355.801,86.5271 354.467,87.1938 353.5,88.5C 353.091,83.3336 355.424,80.6669 360.5,80.5 Z"/></g>
<g><path style="opacity:1" fill="#e7472b" d="M 393.5,52.5 C 393.667,67.5037 393.5,82.5037 393,97.5C 392.057,94.7493 391.224,92.0826 390.5,89.5C 391.102,83.1124 391.435,76.6124 391.5,70C 390.275,69.4372 389.275,69.7705 388.5,71C 389.337,72.0113 389.67,73.1779 389.5,74.5C 388.448,74.3505 387.448,74.5172 386.5,75C 386.539,101.483 386.872,127.983 387.5,154.5C 387.074,155.528 387.074,156.861 387.5,158.5C 385.033,157.964 382.7,157.464 380.5,157C 381.328,156.085 382.328,155.419 383.5,155C 382.328,154.581 381.328,153.915 380.5,153C 381.107,126.637 381.107,100.137 380.5,73.5C 380.433,72.0413 380.766,70.7079 381.5,69.5C 382.289,69.2172 382.956,68.7172 383.5,68C 381.875,67.1475 381.542,66.1475 382.5,65C 380.801,64.6068 379.301,65.1068 378,66.5C 376.97,66.1639 376.47,65.4972 376.5,64.5C 381.632,59.7651 387.299,55.7651 393.5,52.5 Z"/></g>
<g><path style="opacity:1" fill="#b03520" d="M 342.5,97.5 C 341.467,99.0855 340.134,100.419 338.5,101.5C 338.167,98.5 339.5,97.1667 342.5,97.5 Z"/></g>
<g><path style="opacity:0.843" fill="#892a19" d="M 393.5,49.5 C 395.442,54.0557 396.108,59.0557 395.5,64.5C 393.903,100.854 394.237,137.187 396.5,173.5C 396.795,175.735 396.461,177.735 395.5,179.5C 394.751,173.176 394.085,166.843 393.5,160.5C 393.646,158.058 392.813,157.391 391,158.5C 390.727,156.899 390.227,155.399 389.5,154C 389.246,151.272 389.579,148.438 390.5,145.5C 391.224,148.083 392.057,150.749 393,153.5C 393.667,136.833 393.667,120.167 393,103.5C 392.59,104.901 392.09,106.234 391.5,107.5C 390.711,107.217 390.044,106.717 389.5,106C 389.236,100.619 389.569,95.1194 390.5,89.5C 391.224,92.0826 392.057,94.7493 393,97.5C 393.5,82.5037 393.667,67.5037 393.5,52.5C 392.167,51.5 392.167,50.5 393.5,49.5 Z"/></g>
<g><path style="opacity:1" fill="#ab341f" d="M 326.5,115.5 C 326.611,116.117 326.944,116.617 327.5,117C 325.867,117.48 324.534,118.313 323.5,119.5C 323.088,117.027 324.088,115.694 326.5,115.5 Z"/></g>
<g><path style="opacity:1" fill="#e7472b" d="M 329.5,102.5 C 329.414,103.496 329.748,104.329 330.5,105C 328.588,106.2 327.255,107.867 326.5,110C 325.5,110.333 324.5,110.667 323.5,111C 323.833,111.333 324.167,111.667 324.5,112C 321.498,114.381 320.498,117.214 321.5,120.5C 320.485,121.46 320.485,122.627 321.5,124C 321.095,124.945 320.428,125.612 319.5,126C 320.022,126.561 320.355,127.228 320.5,128C 319.328,129.839 317.828,131.339 316,132.5C 315.801,134.402 314.967,135.902 313.5,137C 313.728,137.399 314.062,137.565 314.5,137.5C 314.5,138.5 314.5,139.5 314.5,140.5C 313.448,140.351 312.448,140.517 311.5,141C 312.738,141.69 312.738,142.19 311.5,142.5C 309.688,142.771 308.022,143.438 306.5,144.5C 304.621,146.913 302.954,149.413 301.5,152C 302.361,154.321 301.361,155.487 298.5,155.5C 298.461,160.117 297.127,164.284 294.5,168C 295.925,169.714 295.592,171.047 293.5,172C 294.337,173.011 294.67,174.178 294.5,175.5C 291.203,175.329 290.869,175.995 293.5,177.5C 293.023,178.478 292.357,179.311 291.5,180C 292.333,182.081 292.333,184.248 291.5,186.5C 289.958,187.301 288.292,187.634 286.5,187.5C 289.263,153.145 303.597,124.812 329.5,102.5 Z"/></g>
<g><path style="opacity:1" fill="#bc3922" d="M 390.5,89.5 C 389.569,95.1194 389.236,100.619 389.5,106C 390.044,106.717 390.711,107.217 391.5,107.5C 391.769,120.403 391.435,133.069 390.5,145.5C 389.579,148.438 389.246,151.272 389.5,154C 390.227,155.399 390.727,156.899 391,158.5C 392.813,157.391 393.646,158.058 393.5,160.5C 392.603,159.402 391.77,159.402 391,160.5C 390.124,158.242 388.957,156.242 387.5,154.5C 386.872,127.983 386.539,101.483 386.5,75C 387.448,74.5172 388.448,74.3505 389.5,74.5C 389.67,73.1779 389.337,72.0113 388.5,71C 389.275,69.7705 390.275,69.4372 391.5,70C 391.435,76.6124 391.102,83.1124 390.5,89.5 Z"/></g>
<g><path style="opacity:1" fill="#be3a23" d="M 323.5,119.5 C 323.932,123.384 323.932,126.884 323.5,130C 318.95,131.095 317.284,133.429 318.5,137C 317.207,137.49 315.873,137.657 314.5,137.5C 314.062,137.565 313.728,137.399 313.5,137C 314.967,135.902 315.801,134.402 316,132.5C 317.828,131.339 319.328,129.839 320.5,128C 320.355,127.228 320.022,126.561 319.5,126C 320.428,125.612 321.095,124.945 321.5,124C 320.485,122.627 320.485,121.46 321.5,120.5C 322.167,120.167 322.833,119.833 323.5,119.5 Z"/></g>
<g><path style="opacity:1" fill="#e14529" d="M 390.5,145.5 C 391.435,133.069 391.769,120.403 391.5,107.5C 392.09,106.234 392.59,104.901 393,103.5C 393.667,120.167 393.667,136.833 393,153.5C 392.057,150.749 391.224,148.083 390.5,145.5 Z"/></g>
<g><path style="opacity:1" fill="#c13b24" d="M 311.5,142.5 C 311.611,143.117 311.944,143.617 312.5,144C 309.696,145.659 307.696,147.492 306.5,149.5C 305.359,150.425 305.359,151.259 306.5,152C 305.5,152.333 304.5,152.667 303.5,153C 303.833,154 304.167,155 304.5,156C 302.709,156.415 301.376,157.415 300.5,159C 300.5,160.667 300.5,162.333 300.5,164C 299.5,164.333 298.5,164.667 297.5,165C 297.833,167.333 298.167,169.667 298.5,172C 297.833,172.333 297.167,172.667 296.5,173C 296.833,174 297.167,175 297.5,176C 296.5,176.333 295.5,176.667 294.5,177C 294.833,179.333 295.167,181.667 295.5,184C 293.867,184.48 292.534,185.313 291.5,186.5C 292.333,184.248 292.333,182.081 291.5,180C 292.357,179.311 293.023,178.478 293.5,177.5C 290.869,175.995 291.203,175.329 294.5,175.5C 294.67,174.178 294.337,173.011 293.5,172C 295.592,171.047 295.925,169.714 294.5,168C 297.127,164.284 298.461,160.117 298.5,155.5C 301.361,155.487 302.361,154.321 301.5,152C 302.954,149.413 304.621,146.913 306.5,144.5C 308.022,143.438 309.688,142.771 311.5,142.5 Z"/></g>
<g><path style="opacity:1" fill="#b43721" d="M 386.5,175.5 C 387.683,176.504 389.016,177.338 390.5,178C 389.934,178.995 389.267,179.828 388.5,180.5C 388.607,178.621 388.107,178.288 387,179.5C 385.232,178.318 385.065,176.985 386.5,175.5 Z"/></g>
<g><path style="opacity:0.951" fill="#912c1b" d="M 393.5,49.5 C 392.167,50.5 392.167,51.5 393.5,52.5C 387.299,55.7651 381.632,59.7651 376.5,64.5C 360.23,76.4386 344.563,89.1053 329.5,102.5C 303.597,124.812 289.263,153.145 286.5,187.5C 285.962,189.117 285.629,190.784 285.5,192.5C 285.156,196.228 284.49,199.895 283.5,203.5C 280.641,204.599 277.974,204.099 275.5,202C 265.029,195.008 255.195,187.175 246,178.5C 242.435,174.036 239.935,169.036 238.5,163.5C 232.544,148.907 227.711,133.907 224,118.5C 219.964,98.8209 216.131,79.1542 212.5,59.5C 212.784,57.5853 212.451,55.9187 211.5,54.5C 211.448,50.8019 211.114,47.1352 210.5,43.5C 209.022,43.238 207.689,43.5713 206.5,44.5C 196.738,59.6055 187.071,75.2722 177.5,91.5C 177.846,92.6956 178.346,92.6956 179,91.5C 179.667,92.8333 179.667,94.1667 179,95.5C 177.249,96.1737 175.583,96.507 174,96.5C 162.657,116.19 154.657,137.19 150,159.5C 148.68,175.887 152.513,190.887 161.5,204.5C 165,211.506 169,218.173 173.5,224.5C 175.172,227.022 176.672,229.688 178,232.5C 178.816,233.823 179.983,234.489 181.5,234.5C 181.5,234.833 181.5,235.167 181.5,235.5C 181.062,235.435 180.728,235.601 180.5,236C 182.819,240.162 185.486,243.995 188.5,247.5C 189.494,249.334 189.494,251.001 188.5,252.5C 175.673,233.528 163.84,213.861 153,193.5C 145.275,172.634 145.942,151.967 155,131.5C 170.453,97.2405 188.953,64.9072 210.5,34.5C 214.998,58.8232 219.498,83.1565 224,107.5C 228.74,130.721 236.074,153.054 246,174.5C 256.204,185.868 268.038,195.201 281.5,202.5C 284.36,181.366 289.193,160.7 296,140.5C 300.341,131.812 305.674,123.812 312,116.5C 336.928,91.1632 364.095,68.8299 393.5,49.5 Z"/></g>
<g><path style="opacity:1" fill="#ae3520" d="M 247.5,190.5 C 246.12,189.294 244.953,189.627 244,191.5C 243.066,190.142 242.232,188.808 241.5,187.5C 241.843,185.775 242.843,185.275 244.5,186C 244.167,186.333 243.833,186.667 243.5,187C 245.246,187.471 246.913,188.138 248.5,189C 247.944,189.383 247.611,189.883 247.5,190.5 Z"/></g>
<g><path style="opacity:1" fill="#c33c24" d="M 160.5,167.5 C 160.736,177.049 160.736,186.549 160.5,196C 160.943,199.035 162.276,201.868 164.5,204.5C 163.778,204.082 163.278,203.416 163,202.5C 162.722,203.416 162.222,204.082 161.5,204.5C 160.849,200.378 159.515,196.545 157.5,193C 158.833,189 158.833,185 157.5,181C 158.167,179 158.833,177 159.5,175C 159.167,172.667 158.833,170.333 158.5,168C 159.094,167.536 159.761,167.369 160.5,167.5 Z"/></g>
<g><path style="opacity:1" fill="#bb3923" d="M 164.5,146.5 C 163.619,148.722 163.619,150.889 164.5,153C 163.552,153.483 162.552,153.649 161.5,153.5C 161.166,150.509 162.166,148.176 164.5,146.5 Z"/></g>
<g><path style="opacity:1" fill="#972d1b" d="M 228.5,146.5 C 230.049,150.774 230.715,155.107 230.5,159.5C 229.475,158.626 228.808,157.459 228.5,156C 228.786,153 228.786,149.834 228.5,146.5 Z"/></g>
<g><path style="opacity:1" fill="#d84228" d="M 210.5,59.5 C 211.167,59.5 211.833,59.5 212.5,59.5C 216.131,79.1542 219.964,98.8209 224,118.5C 227.711,133.907 232.544,148.907 238.5,163.5C 234.375,163.723 233.709,165.223 236.5,168C 233.833,168.667 233.833,169.333 236.5,170C 236.402,171.951 236.402,173.785 236.5,175.5C 235.883,175.389 235.383,175.056 235,174.5C 234.326,168.745 232.826,163.745 230.5,159.5C 230.715,155.107 230.049,150.774 228.5,146.5C 226.453,140.484 224.787,134.317 223.5,128C 224.022,127.439 224.355,126.772 224.5,126C 219.93,114.964 216.597,103.631 214.5,92C 215.006,89.9564 215.339,87.9564 215.5,86C 212.993,77.095 211.326,68.2617 210.5,59.5 Z"/></g>
<g><path style="opacity:1" fill="#c13b23" d="M 172.5,127.5 C 173.602,129.092 172.935,129.925 170.5,130C 170.833,131 171.167,132 171.5,133C 170.833,133.333 170.167,133.667 169.5,134C 169.833,135 170.167,136 170.5,137C 169.5,137.333 168.5,137.667 167.5,138C 167.833,139 168.167,140 168.5,141C 166.867,141.48 165.534,142.313 164.5,143.5C 164.657,140.375 165.657,137.542 167.5,135C 167.355,134.228 167.022,133.561 166.5,133C 168.592,132.047 168.925,130.714 167.5,129C 169.247,128.648 170.914,128.148 172.5,127.5 Z"/></g>
<g><path style="opacity:1" fill="#be3a23" d="M 179.5,115.5 C 179.119,116.931 178.119,117.764 176.5,118C 176.5,120.333 176.5,122.667 176.5,125C 174.867,125.48 173.534,126.313 172.5,127.5C 173.333,125.248 173.333,123.081 172.5,121C 174.708,120.064 176.042,118.398 176.5,116C 177.448,115.517 178.448,115.351 179.5,115.5 Z"/></g>
<g><path style="opacity:1" fill="#be3a23" d="M 193.5,91.5 C 194.404,92.209 194.737,93.209 194.5,94.5C 193.5,94.5 192.5,94.5 191.5,94.5C 190.833,97.1667 190.167,99.8333 189.5,102.5C 188.448,102.351 187.448,102.517 186.5,103C 186.833,104 187.167,105 187.5,106C 186.5,106.333 185.5,106.667 184.5,107C 184.833,108 185.167,109 185.5,110C 184.5,110.333 183.5,110.667 182.5,111C 182.833,112 183.167,113 183.5,114C 182.207,114.49 180.873,114.657 179.5,114.5C 180.161,113.36 180.161,111.86 179.5,110C 180.793,109.51 182.127,109.343 183.5,109.5C 183.694,106.67 184.361,104.004 185.5,101.5C 186.5,101.5 187.5,101.5 188.5,101.5C 189.167,98.8333 189.833,96.1667 190.5,93.5C 192.179,93.7148 193.179,93.0481 193.5,91.5 Z"/></g>
<g><path style="opacity:1" fill="#e8472b" d="M 211.5,54.5 C 210.566,57.6356 208.399,59.3023 205,59.5C 204.691,60.7659 204.191,61.9326 203.5,63C 204.337,64.0113 204.67,65.1779 204.5,66.5C 203.178,66.33 202.011,66.6634 201,67.5C 199.833,70 198.667,72.5 197.5,75C 198.337,76.0113 198.67,77.1779 198.5,78.5C 197.178,78.33 196.011,78.6634 195,79.5C 194.305,82.385 193.472,85.2184 192.5,88C 192.528,89.0698 192.861,89.9032 193.5,90.5C 193.5,90.8333 193.5,91.1667 193.5,91.5C 193.179,93.0481 192.179,93.7148 190.5,93.5C 189.833,96.1667 189.167,98.8333 188.5,101.5C 187.5,101.5 186.5,101.5 185.5,101.5C 184.361,104.004 183.694,106.67 183.5,109.5C 182.127,109.343 180.793,109.51 179.5,110C 180.161,111.86 180.161,113.36 179.5,114.5C 179.5,114.833 179.5,115.167 179.5,115.5C 178.448,115.351 177.448,115.517 176.5,116C 176.042,118.398 174.708,120.064 172.5,121C 173.333,123.081 173.333,125.248 172.5,127.5C 170.914,128.148 169.247,128.648 167.5,129C 168.925,130.714 168.592,132.047 166.5,133C 167.022,133.561 167.355,134.228 167.5,135C 165.657,137.542 164.657,140.375 164.5,143.5C 165.833,144.5 165.833,145.5 164.5,146.5C 162.166,148.176 161.166,150.509 161.5,153.5C 161.593,155.405 161.926,157.238 162.5,159C 161.833,159.333 161.167,159.667 160.5,160C 160.598,162.618 160.598,165.118 160.5,167.5C 159.761,167.369 159.094,167.536 158.5,168C 158.833,170.333 159.167,172.667 159.5,175C 158.833,177 158.167,179 157.5,181C 158.833,185 158.833,189 157.5,193C 159.515,196.545 160.849,200.378 161.5,204.5C 152.513,190.887 148.68,175.887 150,159.5C 154.657,137.19 162.657,116.19 174,96.5C 175.583,96.507 177.249,96.1737 179,95.5C 179.667,94.1667 179.667,92.8333 179,91.5C 178.346,92.6956 177.846,92.6956 177.5,91.5C 187.071,75.2722 196.738,59.6055 206.5,44.5C 207.689,43.5713 209.022,43.238 210.5,43.5C 211.114,47.1352 211.448,50.8019 211.5,54.5 Z"/></g>
<g><path style="opacity:1" fill="#ce3f26" d="M 211.5,54.5 C 212.451,55.9187 212.784,57.5853 212.5,59.5C 211.833,59.5 211.167,59.5 210.5,59.5C 208.621,59.3932 208.288,59.8932 209.5,61C 208.09,61.3678 207.09,62.2011 206.5,63.5C 207.809,65.9374 207.142,67.4374 204.5,68C 204.833,69 205.167,70 205.5,71C 204.5,71.3333 203.5,71.6667 202.5,72C 202.833,73 203.167,74 203.5,75C 202.5,75.3333 201.5,75.6667 200.5,76C 200.5,78.3333 200.5,80.6667 200.5,83C 199.207,83.49 197.873,83.6567 196.5,83.5C 196.536,86.461 195.536,88.7943 193.5,90.5C 192.861,89.9032 192.528,89.0698 192.5,88C 193.472,85.2184 194.305,82.385 195,79.5C 196.011,78.6634 197.178,78.33 198.5,78.5C 198.67,77.1779 198.337,76.0113 197.5,75C 198.667,72.5 199.833,70 201,67.5C 202.011,66.6634 203.178,66.33 204.5,66.5C 204.67,65.1779 204.337,64.0113 203.5,63C 204.191,61.9326 204.691,60.7659 205,59.5C 208.399,59.3023 210.566,57.6356 211.5,54.5 Z"/></g>
<g><path style="opacity:1" fill="#c13b24" d="M 291.5,186.5 C 292.602,188.092 291.935,188.925 289.5,189C 289.833,191.333 290.167,193.667 290.5,196C 289.906,196.464 289.239,196.631 288.5,196.5C 287.978,194.781 286.978,193.448 285.5,192.5C 285.629,190.784 285.962,189.117 286.5,187.5C 288.292,187.634 289.958,187.301 291.5,186.5 Z"/></g>
<g><path style="opacity:1" fill="#e6472b" d="M 238.5,163.5 C 239.935,169.036 242.435,174.036 246,178.5C 255.195,187.175 265.029,195.008 275.5,202C 277.974,204.099 280.641,204.599 283.5,203.5C 284.49,199.895 285.156,196.228 285.5,192.5C 286.978,193.448 287.978,194.781 288.5,196.5C 289.506,197.396 289.506,198.062 288.5,198.5C 287.244,198.461 286.244,198.961 285.5,200C 286.339,203.728 286.672,207.562 286.5,211.5C 281.638,211.882 276.972,211.216 272.5,209.5C 272.465,208.596 271.965,207.93 271,207.5C 270.055,207.905 269.388,208.572 269,209.5C 266.833,208 267,206.833 269.5,206C 269.272,205.601 268.938,205.435 268.5,205.5C 269.598,204.603 269.598,203.77 268.5,203C 264.695,202.987 261.362,201.821 258.5,199.5C 259.66,197.797 258.993,197.131 256.5,197.5C 255.833,197.5 255.167,197.5 254.5,197.5C 254.611,196.883 254.944,196.383 255.5,196C 253.913,195.138 252.246,194.471 250.5,194C 251.888,193.111 251.722,192.611 250,192.5C 248.97,192.836 248.47,193.503 248.5,194.5C 246.38,193.597 246.046,192.263 247.5,190.5C 247.611,189.883 247.944,189.383 248.5,189C 246.913,188.138 245.246,187.471 243.5,187C 243.833,186.667 244.167,186.333 244.5,186C 242.843,185.275 241.843,185.775 241.5,187.5C 239.534,186.745 239.2,185.579 240.5,184C 237.761,181.973 236.428,179.14 236.5,175.5C 236.402,173.785 236.402,171.951 236.5,170C 233.833,169.333 233.833,168.667 236.5,168C 233.709,165.223 234.375,163.723 238.5,163.5 Z"/></g>
<g><path style="opacity:1" fill="#ae3520" d="M 254.5,197.5 C 253.12,196.294 251.953,196.627 251,198.5C 250.066,197.142 249.232,195.808 248.5,194.5C 248.47,193.503 248.97,192.836 250,192.5C 251.722,192.611 251.888,193.111 250.5,194C 252.246,194.471 253.913,195.138 255.5,196C 254.944,196.383 254.611,196.883 254.5,197.5 Z"/></g>
<g><path style="opacity:0.753" fill="#b63822" d="M 480.5,199.5 C 479.833,199.167 479.167,198.833 478.5,198.5C 479.301,196.207 479.968,196.54 480.5,199.5 Z"/></g>
<g><path style="opacity:1" fill="#b63722" d="M 256.5,197.5 C 258.993,197.131 259.66,197.797 258.5,199.5C 256.983,199.511 255.816,200.177 255,201.5C 254.308,200.975 253.808,200.308 253.5,199.5C 254.602,198.824 255.602,198.158 256.5,197.5 Z"/></g>
<g><path style="opacity:1" fill="#9d301d" d="M 392.5,190.5 C 394.006,193.366 394.34,196.366 393.5,199.5C 392.918,196.895 392.585,193.895 392.5,190.5 Z"/></g>
<g><path style="opacity:1" fill="#e1452a" d="M 380.5,73.5 C 381.107,100.137 381.107,126.637 380.5,153C 381.328,153.915 382.328,154.581 383.5,155C 382.328,155.419 381.328,156.085 380.5,157C 382.7,157.464 385.033,157.964 387.5,158.5C 387.074,156.861 387.074,155.528 387.5,154.5C 388.957,156.242 390.124,158.242 391,160.5C 391.77,159.402 392.603,159.402 393.5,160.5C 394.085,166.843 394.751,173.176 395.5,179.5C 397.935,195.366 402.935,210.366 410.5,224.5C 409.127,224.657 407.793,224.49 406.5,224C 404.528,221.963 402.195,220.463 399.5,219.5C 398.069,217.811 397.236,215.811 397,213.5C 395.869,214.604 395.035,214.271 394.5,212.5C 395.192,210.665 394.858,208.832 393.5,207C 393.598,204.382 393.598,201.882 393.5,199.5C 394.34,196.366 394.006,193.366 392.5,190.5C 391.152,188.355 390.818,186.188 391.5,184C 389.574,183.578 388.574,182.411 388.5,180.5C 389.267,179.828 389.934,178.995 390.5,178C 389.016,177.338 387.683,176.504 386.5,175.5C 385.649,173.29 384.316,171.29 382.5,169.5C 382.709,168.914 383.043,168.414 383.5,168C 382.793,165.457 381.46,163.291 379.5,161.5C 380.192,159.665 379.858,157.832 378.5,156C 378.598,132.049 378.598,108.215 378.5,84.5C 378.833,81.1667 379.167,77.8333 379.5,74.5C 379.5,73.8333 379.833,73.5 380.5,73.5 Z"/></g>
<g><path style="opacity:1" fill="#c73d24" d="M 258.5,199.5 C 261.362,201.821 264.695,202.987 268.5,203C 269.598,203.77 269.598,204.603 268.5,205.5C 266.254,205.936 264.087,206.603 262,207.5C 260.007,205.594 260.507,204.427 263.5,204C 262.234,203.691 261.067,203.191 260,202.5C 259.667,202.833 259.333,203.167 259,203.5C 257.232,202.318 257.065,200.985 258.5,199.5 Z"/></g>
<g><path style="opacity:1" fill="#de4429" d="M 164.5,204.5 C 166.687,205.049 167.354,206.215 166.5,208C 168.141,209.129 169.141,210.629 169.5,212.5C 171.05,216.483 172.383,220.483 173.5,224.5C 169,218.173 165,211.506 161.5,204.5C 162.222,204.082 162.722,203.416 163,202.5C 163.278,203.416 163.778,204.082 164.5,204.5 Z"/></g>
<g><path style="opacity:1" fill="#c13b24" d="M 288.5,198.5 C 288.595,203.058 288.928,207.558 289.5,212C 287.075,212.293 285.242,213.459 284,215.5C 283.667,214.833 283.333,214.167 283,213.5C 282,214.5 281,215.5 280,216.5C 278.667,215.167 277.333,215.167 276,216.5C 274.007,214.594 274.507,213.427 277.5,213C 275.291,211.309 273.458,211.476 272,213.5C 270.07,211.923 270.237,210.59 272.5,209.5C 276.972,211.216 281.638,211.882 286.5,211.5C 286.672,207.562 286.339,203.728 285.5,200C 286.244,198.961 287.244,198.461 288.5,198.5 Z"/></g>
<g><path style="opacity:1" fill="#c13b24" d="M 100.5,213.5 C 99.7611,213.369 99.0944,213.536 98.5,214C 98.8333,229.667 99.1667,245.333 99.5,261C 98.5,261.333 97.5,261.667 96.5,262C 96.8333,287 97.1667,312 97.5,337C 96.8333,337.333 96.1667,337.667 95.5,338C 95.8333,339 96.1667,340 96.5,341C 95.5,341.333 94.5,341.667 93.5,342C 93.8333,343 94.1667,344 94.5,345C 92.867,345.48 91.5336,346.313 90.5,347.5C 91.3331,345.248 91.3331,343.081 90.5,341C 91.448,340.517 92.448,340.351 93.5,340.5C 94.8005,315.451 94.8005,290.284 93.5,265C 95.9574,263.488 95.9574,262.154 93.5,261C 94.448,260.517 95.448,260.351 96.5,260.5C 96.6687,243.246 96.3353,226.079 95.5,209C 96.1905,207.933 96.6905,206.766 97,205.5C 97.227,208.06 98.5603,209.726 101,210.5C 101.74,211.749 101.573,212.749 100.5,213.5 Z"/></g>
<g><path style="opacity:1" fill="#b83822" d="M 169.5,212.5 C 171.397,213.984 173.064,215.818 174.5,218C 174.167,218.333 173.833,218.667 173.5,219C 174.131,221.099 175.131,222.932 176.5,224.5C 175.5,224.5 174.5,224.5 173.5,224.5C 172.383,220.483 171.05,216.483 169.5,212.5 Z"/></g>
<g><path style="opacity:1" fill="#d64228" d="M 173.5,224.5 C 174.5,224.5 175.5,224.5 176.5,224.5C 178.991,227.714 180.991,230.881 182.5,234C 182.272,234.399 181.938,234.565 181.5,234.5C 179.983,234.489 178.816,233.823 178,232.5C 176.672,229.688 175.172,227.022 173.5,224.5 Z"/></g>
<g><path style="opacity:1" fill="#bd3a23" d="M 181.5,235.5 C 184.655,238.507 187.322,242.007 189.5,246C 188.944,246.383 188.611,246.883 188.5,247.5C 185.486,243.995 182.819,240.162 180.5,236C 180.728,235.601 181.062,235.435 181.5,235.5 Z"/></g>
<g><path style="opacity:0.957" fill="#922d1b" d="M 189.5,254.5 C 190.077,253.227 190.743,253.227 191.5,254.5C 192.857,257.601 194.19,260.601 195.5,263.5C 197.583,275.264 196.083,286.597 191,297.5C 186.88,307.741 182.213,317.741 177,327.5C 175.506,328.747 174.006,328.747 172.5,327.5C 145.16,280.157 118.327,232.491 92,184.5C 91.8696,213.514 91.703,242.514 91.5,271.5C 91.1667,271.5 90.8333,271.5 90.5,271.5C 90.3334,240.498 90.5,209.498 91,178.5C 119.173,227.51 146.84,276.843 174,326.5C 183.123,311.915 189.79,296.249 194,279.5C 195.206,270.663 193.706,262.329 189.5,254.5 Z"/></g>
<g><path style="opacity:1" fill="#ce3f26" d="M 399.5,219.5 C 402.195,220.463 404.528,221.963 406.5,224C 407.793,224.49 409.127,224.657 410.5,224.5C 415.071,232.961 419.404,241.295 423.5,249.5C 423.205,251.482 422.871,253.482 422.5,255.5C 423.09,256.799 424.09,257.632 425.5,258C 424.944,258.383 424.611,258.883 424.5,259.5C 423.504,259.586 422.671,259.252 422,258.5C 421.667,256.5 421.333,254.5 421,252.5C 418.832,251.371 418.332,249.871 419.5,248C 416.77,244.154 414.603,239.987 413,235.5C 412.147,237.125 411.147,237.458 410,236.5C 407.452,233.092 405.452,229.092 404,224.5C 403.333,225.167 402.667,225.833 402,226.5C 399.833,225 400,223.833 402.5,223C 400.574,222.578 399.574,221.411 399.5,219.5 Z"/></g>
<g><path style="opacity:1" fill="#c93e25" d="M 188.5,247.5 C 190.883,249.222 192.883,251.389 194.5,254C 194.167,254.333 193.833,254.667 193.5,255C 195.632,255.918 196.299,257.251 195.5,259C 197.439,259.908 198.439,261.408 198.5,263.5C 197.778,263.082 197.278,262.416 197,261.5C 196.722,262.416 196.222,263.082 195.5,263.5C 194.19,260.601 192.857,257.601 191.5,254.5C 190.743,253.227 190.077,253.227 189.5,254.5C 188.662,254.158 188.328,253.492 188.5,252.5C 189.494,251.001 189.494,249.334 188.5,247.5 Z"/></g>
<g><path style="opacity:1" fill="#e5462a" d="M 451.5,239.5 C 451.5,240.833 451.5,242.167 451.5,243.5C 452.506,244.396 452.506,245.062 451.5,245.5C 450.078,245.709 448.745,246.209 447.5,247C 448.38,248.356 448.714,249.856 448.5,251.5C 449.506,252.396 449.506,253.062 448.5,253.5C 447.078,253.709 445.745,254.209 444.5,255C 444.893,257.042 444.893,258.875 444.5,260.5C 444.5,260.833 444.5,261.167 444.5,261.5C 442.586,262.185 440.586,262.685 438.5,263C 439.728,264.49 439.728,265.99 438.5,267.5C 433.913,268.115 429.913,266.948 426.5,264C 429.949,264.387 430.449,262.887 428,259.5C 426.855,260.684 425.688,260.684 424.5,259.5C 424.611,258.883 424.944,258.383 425.5,258C 424.09,257.632 423.09,256.799 422.5,255.5C 422.871,253.482 423.205,251.482 423.5,249.5C 426.144,252.773 428.311,256.44 430,260.5C 431.133,262.211 432.633,262.711 434.5,262C 440.066,254.342 445.732,246.842 451.5,239.5 Z"/></g>
<g><path style="opacity:1" fill="#c13b24" d="M 444.5,261.5 C 444.119,262.931 443.119,263.764 441.5,264C 441.833,265 442.167,266 442.5,267C 441.207,267.49 439.873,267.657 438.5,267.5C 439.728,265.99 439.728,264.49 438.5,263C 440.586,262.685 442.586,262.185 444.5,261.5 Z"/></g>
<g><path style="opacity:1" fill="#c43c24" d="M 424.5,259.5 C 425.688,260.684 426.855,260.684 428,259.5C 430.449,262.887 429.949,264.387 426.5,264C 429.913,266.948 433.913,268.115 438.5,267.5C 438.053,270.524 437.22,270.857 436,268.5C 435,269.5 434,270.5 433,271.5C 431.488,269.043 430.154,269.043 429,271.5C 427.007,269.594 427.507,268.427 430.5,268C 425.854,266.747 423.854,263.914 424.5,259.5 Z"/></g>
<g><path style="opacity:1" fill="#952d1b" d="M 489.5,263.5 C 490.222,263.918 490.722,264.584 491,265.5C 491.42,269.191 491.92,272.858 492.5,276.5C 491.778,276.082 491.278,275.416 491,274.5C 490.58,270.809 490.08,267.142 489.5,263.5 Z"/></g>
<g><path style="opacity:1" fill="#c13b24" d="M 198.5,263.5 C 199.922,263.75 200.922,264.583 201.5,266C 200.939,267.566 201.606,268.899 203.5,270C 202.786,271.343 203.12,272.676 204.5,274C 203.167,285.333 203.167,296.667 204.5,308C 203.833,308.333 203.167,308.667 202.5,309C 202.833,310 203.167,311 203.5,312C 201.867,312.48 200.534,313.313 199.5,314.5C 200.333,312.248 200.333,310.081 199.5,308C 200.428,307.612 201.095,306.945 201.5,306C 201.5,295.333 201.5,284.667 201.5,274C 200.574,270.459 199.574,266.959 198.5,263.5 Z"/></g>
<g><path style="opacity:1" fill="#e5472a" d="M 195.5,263.5 C 196.222,263.082 196.722,262.416 197,261.5C 197.278,262.416 197.778,263.082 198.5,263.5C 199.574,266.959 200.574,270.459 201.5,274C 201.5,284.667 201.5,295.333 201.5,306C 201.095,306.945 200.428,307.612 199.5,308C 200.333,310.081 200.333,312.248 199.5,314.5C 197.914,315.148 196.247,315.648 194.5,316C 193.5,318.333 191.833,320 189.5,321C 190.353,323.749 189.687,326.249 187.5,328.5C 187.624,329.107 187.957,329.44 188.5,329.5C 188.5,329.833 188.5,330.167 188.5,330.5C 185.281,331.638 181.947,332.471 178.5,333C 179.416,333.278 180.082,333.778 180.5,334.5C 179.895,336.481 178.895,336.815 177.5,335.5C 176.514,333.592 174.848,332.592 172.5,332.5C 171.188,332.176 170.355,331.509 170,330.5C 169.055,330.905 168.388,331.572 168,332.5C 167.819,330.206 166.985,328.039 165.5,326C 166.187,324.838 166.353,323.672 166,322.5C 164.684,325.028 163.517,325.028 162.5,322.5C 163.894,321.313 163.727,320.646 162,320.5C 160.168,323.2 159.001,322.867 158.5,319.5C 159.267,318.828 159.934,317.995 160.5,317C 157.527,316.509 155.693,315.342 155,313.5C 153.97,313.836 153.47,314.503 153.5,315.5C 152.522,315.189 151.855,314.522 151.5,313.5C 152.18,312.14 152.847,310.807 153.5,309.5C 153.191,306.654 151.525,305.154 148.5,305C 149.167,304.667 149.833,304.333 150.5,304C 148.408,303.047 148.075,301.714 149.5,300C 148.371,297.832 146.871,297.332 145,298.5C 143.632,297.007 143.465,295.507 144.5,294C 140.728,292.611 140.728,291.611 144.5,291C 141.751,289.654 141.417,288.32 143.5,287C 141.462,284.387 138.962,282.22 136,280.5C 135.383,279.551 135.549,278.718 136.5,278C 135.473,277.487 134.473,276.987 133.5,276.5C 133.5,276.167 133.5,275.833 133.5,275.5C 133.402,273.785 133.402,271.951 133.5,270C 130.876,269.424 130.209,268.09 131.5,266C 130.423,265.53 129.423,265.697 128.5,266.5C 127.375,265.652 127.375,264.652 128.5,263.5C 128.611,262.883 128.944,262.383 129.5,262C 128.09,261.632 127.09,260.799 126.5,259.5C 127.681,257.802 127.681,256.135 126.5,254.5C 124.667,253.948 123,253.115 121.5,252C 124.949,252.387 125.449,250.887 123,247.5C 121.855,248.684 120.688,248.684 119.5,247.5C 118.504,247.586 117.671,247.252 117,246.5C 116.583,243.578 115.583,240.911 114,238.5C 112.759,234.288 112.592,230.121 113.5,226C 112.451,225.508 111.451,225.674 110.5,226.5C 109.438,225.575 109.438,224.575 110.5,223.5C 110.611,222.883 110.944,222.383 111.5,222C 108.688,220.672 106.022,219.172 103.5,217.5C 101.799,216.789 100.799,215.455 100.5,213.5C 101.573,212.749 101.74,211.749 101,210.5C 98.5603,209.726 97.227,208.06 97,205.5C 96.6905,206.766 96.1905,207.933 95.5,209C 96.3353,226.079 96.6687,243.246 96.5,260.5C 95.448,260.351 94.448,260.517 93.5,261C 95.9574,262.154 95.9574,263.488 93.5,265C 94.8005,290.284 94.8005,315.451 93.5,340.5C 92.448,340.351 91.448,340.517 90.5,341C 91.3331,343.081 91.3331,345.248 90.5,347.5C 88.9582,348.301 87.2915,348.634 85.5,348.5C 86.3443,344.789 87.3443,341.123 88.5,337.5C 91.1173,315.59 92.1173,293.59 91.5,271.5C 91.703,242.514 91.8696,213.514 92,184.5C 118.327,232.491 145.16,280.157 172.5,327.5C 174.006,328.747 175.506,328.747 177,327.5C 182.213,317.741 186.88,307.741 191,297.5C 196.083,286.597 197.583,275.264 195.5,263.5 Z"/></g>
<g><path style="opacity:1" fill="#be3a23" d="M 133.5,275.5 C 131.608,272.724 129.941,269.724 128.5,266.5C 129.423,265.697 130.423,265.53 131.5,266C 130.209,268.09 130.876,269.424 133.5,270C 133.402,271.951 133.402,273.785 133.5,275.5 Z"/></g>
<g><path style="opacity:1" fill="#ce3f26" d="M 119.5,247.5 C 120.688,248.684 121.855,248.684 123,247.5C 125.449,250.887 124.949,252.387 121.5,252C 123,253.115 124.667,253.948 126.5,254.5C 127.681,256.135 127.681,257.802 126.5,259.5C 127.09,260.799 128.09,261.632 129.5,262C 128.944,262.383 128.611,262.883 128.5,263.5C 127.504,263.586 126.671,263.252 126,262.5C 125.667,261.167 125.333,259.833 125,258.5C 124.333,259.833 123.667,259.833 123,258.5C 122.383,257.551 122.549,256.718 123.5,256C 121.247,254.288 119.58,252.121 118.5,249.5C 118.863,248.817 119.196,248.15 119.5,247.5 Z"/></g>
<g><path style="opacity:1" fill="#bd3a23" d="M 103.5,217.5 C 106.022,219.172 108.688,220.672 111.5,222C 110.944,222.383 110.611,222.883 110.5,223.5C 108.983,223.511 107.816,224.177 107,225.5C 105.007,223.594 105.507,222.427 108.5,222C 106.939,221.682 105.772,220.849 105,219.5C 104.333,220.167 103.667,220.833 103,221.5C 101.07,219.923 101.237,218.59 103.5,217.5 Z"/></g>
<g><path style="opacity:1" fill="#d34027" d="M 133.5,276.5 C 134.473,276.987 135.473,277.487 136.5,278C 135.549,278.718 135.383,279.551 136,280.5C 138.962,282.22 141.462,284.387 143.5,287C 141.417,288.32 141.751,289.654 144.5,291C 140.728,291.611 140.728,292.611 144.5,294C 143.465,295.507 143.632,297.007 145,298.5C 146.871,297.332 148.371,297.832 149.5,300C 148.075,301.714 148.408,303.047 150.5,304C 149.833,304.333 149.167,304.667 148.5,305C 151.525,305.154 153.191,306.654 153.5,309.5C 151.876,309.36 150.71,310.027 150,311.5C 149.667,311.167 149.333,310.833 149,310.5C 148.594,308.065 148.094,305.398 147.5,302.5C 145.058,302.646 144.391,301.813 145.5,300C 143.113,299.024 141.946,297.191 142,294.5C 141.333,295.833 140.667,295.833 140,294.5C 139.383,293.551 139.549,292.718 140.5,292C 137.298,287.227 134.964,282.06 133.5,276.5 Z"/></g>
<g><path style="opacity:1" fill="#9d301d" d="M 496.5,288.5 C 498.006,291.366 498.34,294.366 497.5,297.5C 496.918,294.895 496.585,291.895 496.5,288.5 Z"/></g>
<g><path style="opacity:1" fill="#e14529" d="M 509.5,327.5 C 508.624,327.369 507.957,327.702 507.5,328.5C 508.506,329.396 508.506,330.062 507.5,330.5C 504.371,328.92 503.537,326.586 505,323.5C 503.855,324.684 502.688,324.684 501.5,323.5C 499.405,320.699 499.072,317.866 500.5,315C 500.192,313.541 499.525,312.374 498.5,311.5C 498.349,306.578 498.016,301.912 497.5,297.5C 498.34,294.366 498.006,291.366 496.5,288.5C 495.355,284.397 494.021,280.397 492.5,276.5C 491.92,272.858 491.42,269.191 491,265.5C 490.722,264.584 490.222,263.918 489.5,263.5C 490.066,250.244 486.732,237.911 479.5,226.5C 479.709,225.914 480.043,225.414 480.5,225C 478.68,224.021 477.513,222.521 477,220.5C 475.438,221.931 473.938,223.431 472.5,225C 472.833,225.333 473.167,225.667 473.5,226C 472.207,226.49 470.873,226.657 469.5,226.5C 469.62,229.205 468.62,229.872 466.5,228.5C 465.833,229.833 465.167,231.167 464.5,232.5C 463.833,232.167 463.167,231.833 462.5,231.5C 461.757,232.908 460.923,234.241 460,235.5C 459.023,234.226 458.189,234.226 457.5,235.5C 456.5,235.5 455.5,235.5 454.5,235.5C 458.141,230.185 461.808,224.851 465.5,219.5C 466.729,218.719 468.062,218.219 469.5,218C 468.483,216.951 468.316,215.784 469,214.5C 471.989,209.851 475.323,205.518 479,201.5C 492.613,242.619 502.779,284.619 509.5,327.5 Z"/></g>
<g><path style="opacity:1" fill="#ae3520" d="M 158.5,319.5 C 158.225,317.158 157.392,317.158 156,319.5C 155.066,318.142 154.232,316.808 153.5,315.5C 153.47,314.503 153.97,313.836 155,313.5C 155.693,315.342 157.527,316.509 160.5,317C 159.934,317.995 159.267,318.828 158.5,319.5 Z"/></g>
<g><path style="opacity:0.957" fill="#8c2b1a" d="M 90.5,271.5 C 90.8333,271.5 91.1667,271.5 91.5,271.5C 92.1173,293.59 91.1173,315.59 88.5,337.5C 87.5386,335.735 87.2053,333.735 87.5,331.5C 88.8193,311.517 89.8193,291.517 90.5,271.5 Z"/></g>
<g><path style="opacity:1" fill="#cd3f26" d="M 199.5,314.5 C 200.602,316.092 199.935,316.925 197.5,317C 197.833,318 198.167,319 198.5,320C 195.696,321.659 193.696,323.492 192.5,325.5C 191.359,326.425 191.359,327.259 192.5,328C 190.942,328.21 189.609,328.71 188.5,329.5C 187.957,329.44 187.624,329.107 187.5,328.5C 189.687,326.249 190.353,323.749 189.5,321C 191.833,320 193.5,318.333 194.5,316C 196.247,315.648 197.914,315.148 199.5,314.5 Z"/></g>
<g><path style="opacity:0.957" fill="#8e2c1a" d="M 396.5,173.5 C 397.893,184.736 400.727,195.736 405,206.5C 413.298,225.097 422.631,243.097 433,260.5C 447.944,239.588 463.11,218.921 478.5,198.5C 479.167,198.833 479.833,199.167 480.5,199.5C 496.052,245.044 506.886,291.711 513,339.5C 514.462,366.384 510.629,392.384 501.5,417.5C 500.833,417.5 500.5,417.167 500.5,416.5C 506.287,396.064 509.953,375.231 511.5,354C 511.452,351.081 511.119,348.248 510.5,345.5C 510.64,339.464 510.307,333.464 509.5,327.5C 502.779,284.619 492.613,242.619 479,201.5C 475.323,205.518 471.989,209.851 469,214.5C 468.316,215.784 468.483,216.951 469.5,218C 468.062,218.219 466.729,218.719 465.5,219.5C 461.808,224.851 458.141,230.185 454.5,235.5C 453.026,236.436 452.026,237.77 451.5,239.5C 445.732,246.842 440.066,254.342 434.5,262C 432.633,262.711 431.133,262.211 430,260.5C 428.311,256.44 426.144,252.773 423.5,249.5C 419.404,241.295 415.071,232.961 410.5,224.5C 402.935,210.366 397.935,195.366 395.5,179.5C 396.461,177.735 396.795,175.735 396.5,173.5 Z"/></g>
<g><path style="opacity:1" fill="#bc3923" d="M 448.5,253.5 C 447.209,255.172 447.209,257.006 448.5,259C 446.942,259.21 445.609,259.71 444.5,260.5C 444.893,258.875 444.893,257.042 444.5,255C 445.745,254.209 447.078,253.709 448.5,253.5 Z"/></g>
<g><path style="opacity:1" fill="#bc3923" d="M 451.5,245.5 C 450.209,247.172 450.209,249.006 451.5,251C 450.552,251.483 449.552,251.649 448.5,251.5C 448.714,249.856 448.38,248.356 447.5,247C 448.745,246.209 450.078,245.709 451.5,245.5 Z"/></g>
<g><path style="opacity:1" fill="#bb3922" d="M 454.5,235.5 C 455.5,235.5 456.5,235.5 457.5,235.5C 455.393,236.88 454.06,238.38 453.5,240C 453.833,241 454.167,242 454.5,243C 453.552,243.483 452.552,243.649 451.5,243.5C 451.5,242.167 451.5,240.833 451.5,239.5C 452.026,237.77 453.026,236.436 454.5,235.5 Z"/></g>
<g><path style="opacity:1" fill="#922c1a" d="M 498.5,311.5 C 499.525,312.374 500.192,313.541 500.5,315C 499.072,317.866 499.405,320.699 501.5,323.5C 501.5,324.167 501.167,324.5 500.5,324.5C 499.266,322.799 498.599,320.799 498.5,318.5C 499.815,316.157 499.815,313.823 498.5,311.5 Z"/></g>
<g><path style="opacity:1" fill="#d74228" d="M 501.5,323.5 C 502.688,324.684 503.855,324.684 505,323.5C 503.537,326.586 504.371,328.92 507.5,330.5C 508.506,330.062 508.506,329.396 507.5,328.5C 507.957,327.702 508.624,327.369 509.5,327.5C 510.307,333.464 510.64,339.464 510.5,345.5C 509.778,346.551 508.778,347.218 507.5,347.5C 507.539,346.417 507.873,345.417 508.5,344.5C 506.7,340.411 505.534,336.077 505,331.5C 503.883,330.051 503.216,328.384 503,326.5C 501.375,327.412 500.541,326.745 500.5,324.5C 501.167,324.5 501.5,324.167 501.5,323.5 Z"/></g>
<g><path style="opacity:1" fill="#bc3922" d="M 188.5,330.5 C 186.677,332.026 184.844,333.692 183,335.5C 182.658,333.381 181.825,333.047 180.5,334.5C 180.082,333.778 179.416,333.278 178.5,333C 181.947,332.471 185.281,331.638 188.5,330.5 Z"/></g>
<g><path style="opacity:1" fill="#c03b23" d="M 172.5,332.5 C 174.848,332.592 176.514,333.592 177.5,335.5C 175.464,338.338 173.964,338.005 173,334.5C 171.684,337.028 170.517,337.028 169.5,334.5C 170.602,333.824 171.602,333.158 172.5,332.5 Z"/></g>
<g><path style="opacity:1" fill="#942d1b" d="M 506.5,349.5 C 506.167,352.833 505.833,356.167 505.5,359.5C 504.723,356.894 504.39,354.06 504.5,351C 504.836,349.97 505.503,349.47 506.5,349.5 Z"/></g>
<g><path style="opacity:1" fill="#ce3f26" d="M 90.5,347.5 C 90.6107,348.117 90.944,348.617 91.5,349C 88.7007,349.439 87.7007,350.772 88.5,353C 87.8333,353.333 87.1667,353.667 86.5,354C 86.8333,355 87.1667,356 87.5,357C 86.8333,357.333 86.1667,357.667 85.5,358C 85.8333,359 86.1667,360 86.5,361C 85.8333,361.333 85.1667,361.667 84.5,362C 84.8333,363 85.1667,364 85.5,365C 82.7007,365.439 81.7007,366.772 82.5,369C 81.8333,369.333 81.1667,369.667 80.5,370C 80.8333,371 81.1667,372 81.5,373C 80.5,373.333 79.5,373.667 78.5,374C 78.5,376.333 78.5,378.667 78.5,381C 77.5,381.333 76.5,381.667 75.5,382C 75.8333,383 76.1667,384 76.5,385C 74.867,385.48 73.5336,386.313 72.5,387.5C 70.9582,388.301 69.2915,388.634 67.5,388.5C 74.071,375.363 80.071,362.03 85.5,348.5C 87.2915,348.634 88.9582,348.301 90.5,347.5 Z"/></g>
<g><path style="opacity:1" fill="#942d1b" d="M 505.5,373.5 C 505.167,376.833 504.833,380.167 504.5,383.5C 503.723,380.894 503.39,378.06 503.5,375C 503.836,373.97 504.503,373.47 505.5,373.5 Z"/></g>
<g><path style="opacity:1" fill="#e2452a" d="M 510.5,345.5 C 511.119,348.248 511.452,351.081 511.5,354C 509.953,375.231 506.287,396.064 500.5,416.5C 499.842,417.398 499.176,418.398 498.5,419.5C 498.167,419.333 497.833,419.167 497.5,419C 497.939,415.847 498.272,412.681 498.5,409.5C 499.029,407.417 500.029,405.583 501.5,404C 501.167,403.667 500.833,403.333 500.5,403C 502.464,400.482 503.13,397.816 502.5,395C 505.469,391.137 506.136,387.304 504.5,383.5C 504.833,380.167 505.167,376.833 505.5,373.5C 505.991,368.922 505.991,364.255 505.5,359.5C 505.833,356.167 506.167,352.833 506.5,349.5C 506.833,348.833 507.167,348.167 507.5,347.5C 508.778,347.218 509.778,346.551 510.5,345.5 Z"/></g>
<g><path style="opacity:0.722" fill="#b73822" d="M 430.5,379.5 C 430.795,377.265 430.461,375.265 429.5,373.5C 429.783,372.711 430.283,372.044 431,371.5C 431.801,374.367 431.634,377.034 430.5,379.5 Z"/></g>
<g><path style="opacity:0.831" fill="#b33721" d="M 142.5,390.5 C 144.027,390.427 145.027,391.094 145.5,392.5C 143.973,392.573 142.973,391.906 142.5,390.5 Z"/></g>
<g><path style="opacity:1" fill="#bd3923" d="M 72.5,387.5 C 73.6016,389.092 72.935,389.925 70.5,390C 70.8333,391 71.1667,392 71.5,393C 70.552,393.483 69.552,393.649 68.5,393.5C 68.5271,395.199 69.1938,396.533 70.5,397.5C 69.5,397.5 68.5,397.5 67.5,397.5C 67.9861,394.618 67.9861,391.952 67.5,389.5C 67.5,389.167 67.5,388.833 67.5,388.5C 69.2915,388.634 70.9582,388.301 72.5,387.5 Z"/></g>
<g><path style="opacity:0.835" fill="#b43821" d="M 157.5,402.5 C 159.027,402.427 160.027,403.094 160.5,404.5C 158.973,404.573 157.973,403.906 157.5,402.5 Z"/></g>
<g><path style="opacity:1" fill="#e04529" d="M 67.5,389.5 C 67.9861,391.952 67.9861,394.618 67.5,397.5C 68.5,397.5 69.5,397.5 70.5,397.5C 74.9684,403.357 78.9684,409.19 82.5,415C 82.1667,415.333 81.8333,415.667 81.5,416C 83.3939,417.101 84.0606,418.434 83.5,420C 86.5018,425.037 89.1685,429.87 91.5,434.5C 95.8113,443.832 100.478,452.832 105.5,461.5C 107.588,464.752 108.921,468.418 109.5,472.5C 106.167,468.167 102.833,463.833 99.5,459.5C 87.4914,437.99 75.8247,416.157 64.5,394C 65.3994,392.348 66.3994,390.848 67.5,389.5 Z"/></g>
<g><path style="opacity:0.976" fill="#942d1b" d="M 87.5,331.5 C 87.2053,333.735 87.5386,335.735 88.5,337.5C 87.3443,341.123 86.3443,344.789 85.5,348.5C 80.071,362.03 74.071,375.363 67.5,388.5C 67.5,388.833 67.5,389.167 67.5,389.5C 66.3994,390.848 65.3994,392.348 64.5,394C 75.8247,416.157 87.4914,437.99 99.5,459.5C 99.1667,459.5 98.8333,459.5 98.5,459.5C 84.7355,438.985 72.7355,417.319 62.5,394.5C 69.605,379.29 76.4384,363.956 83,348.5C 85.0002,342.825 86.5002,337.158 87.5,331.5 Z"/></g>
<g><path style="opacity:1" fill="#dd4429" d="M 493.5,432.5 C 493.719,433.675 493.386,434.675 492.5,435.5C 491.537,435.03 491.537,434.363 492.5,433.5C 492.5,432.833 492.833,432.5 493.5,432.5 Z"/></g>
<g><path style="opacity:0.824" fill="#962e1c" d="M 498.5,409.5 C 498.272,412.681 497.939,415.847 497.5,419C 497.833,419.167 498.167,419.333 498.5,419.5C 499.176,418.398 499.842,417.398 500.5,416.5C 500.5,417.167 500.833,417.5 501.5,417.5C 496.06,438.372 487.393,457.706 475.5,475.5C 474.646,474.368 474.646,473.035 475.5,471.5C 476.859,467.281 478.859,463.447 481.5,460C 480.015,458.244 480.348,457.077 482.5,456.5C 481.321,458.507 481.821,458.84 484,457.5C 484.931,455.541 485.764,453.541 486.5,451.5C 486.043,450.702 485.376,450.369 484.5,450.5C 485.945,448.867 487.279,447.034 488.5,445C 487.015,443.244 487.348,442.077 489.5,441.5C 488.537,442.363 488.537,443.03 489.5,443.5C 490.386,442.675 490.719,441.675 490.5,440.5C 492.382,439.779 492.715,438.779 491.5,437.5C 489.825,435.544 490.158,434.211 492.5,433.5C 491.537,434.363 491.537,435.03 492.5,435.5C 493.386,434.675 493.719,433.675 493.5,432.5C 494.349,429.964 495.349,427.464 496.5,425C 495.075,423.286 495.408,421.953 497.5,421C 496.978,417.733 496.644,414.4 496.5,411C 496.836,409.97 497.503,409.47 498.5,409.5 Z"/></g>
<g><path style="opacity:1" fill="#d24026" d="M 491.5,437.5 C 492.715,438.779 492.382,439.779 490.5,440.5C 490.263,439.209 490.596,438.209 491.5,437.5 Z"/></g>
<g><path style="opacity:1" fill="#cd3f27" d="M 490.5,440.5 C 490.719,441.675 490.386,442.675 489.5,443.5C 488.537,443.03 488.537,442.363 489.5,441.5C 489.5,440.833 489.833,440.5 490.5,440.5 Z"/></g>
<g><path style="opacity:1" fill="#c73d25" d="M 91.5,434.5 C 93.3969,435.984 95.0636,437.818 96.5,440C 96.1667,440.333 95.8333,440.667 95.5,441C 97.6324,441.918 98.299,443.251 97.5,445C 99.6324,445.918 100.299,447.251 99.5,449C 101.632,449.918 102.299,451.251 101.5,453C 103.632,453.918 104.299,455.251 103.5,457C 105.795,458.062 106.461,459.562 105.5,461.5C 100.478,452.832 95.8113,443.832 91.5,434.5 Z"/></g>
<g><path style="opacity:1" fill="#ce3f26" d="M 484.5,450.5 C 485.376,450.369 486.043,450.702 486.5,451.5C 485.764,453.541 484.931,455.541 484,457.5C 481.821,458.84 481.321,458.507 482.5,456.5C 482.303,454.52 482.97,452.52 484.5,450.5 Z"/></g>
<g><path style="opacity:0.847" fill="#b23721" d="M 406.5,471.5 C 406.573,473.027 405.906,474.027 404.5,474.5C 404.427,472.973 405.094,471.973 406.5,471.5 Z"/></g>
<g><path style="opacity:1" fill="#ac3520" d="M 113.5,473.5 C 114.833,473.5 116.167,473.5 117.5,473.5C 117.527,475.199 118.194,476.533 119.5,477.5C 118.5,477.5 117.5,477.5 116.5,477.5C 116.587,474.402 116.087,474.068 115,476.5C 114.487,475.473 113.987,474.473 113.5,473.5 Z"/></g>
<g><path style="opacity:1" fill="#d54127" d="M 469.5,478.5 C 469.47,481.852 468.137,484.518 465.5,486.5C 465.389,485.883 465.056,485.383 464.5,485C 465.376,482.136 467.043,479.969 469.5,478.5 Z"/></g>
<g><path style="opacity:0.961" fill="#a3321e" d="M 475.5,471.5 C 474.646,473.035 474.646,474.368 475.5,475.5C 469.191,487.107 461.191,497.44 451.5,506.5C 451.5,505.833 451.5,505.167 451.5,504.5C 453.992,501.531 456.492,498.531 459,495.5C 459.692,494.563 459.525,493.897 458.5,493.5C 461,491.406 463.333,489.073 465.5,486.5C 468.137,484.518 469.47,481.852 469.5,478.5C 470.74,475.588 472.74,473.254 475.5,471.5 Z"/></g>
<g><path style="opacity:0.922" fill="#9e311d" d="M 388.5,491.5 C 387.089,493.914 385.089,495.581 382.5,496.5C 383.911,494.086 385.911,492.419 388.5,491.5 Z"/></g>
<g><path style="opacity:1" fill="#e3462a" d="M 109.5,472.5 C 111.099,472.232 112.432,472.566 113.5,473.5C 113.987,474.473 114.487,475.473 115,476.5C 116.087,474.068 116.587,474.402 116.5,477.5C 117.5,477.5 118.5,477.5 119.5,477.5C 121.333,480.414 123.333,483.248 125.5,486C 124.786,487.343 125.12,488.676 126.5,490C 130.5,491.667 134.5,493.333 138.5,495C 138.167,495.333 137.833,495.667 137.5,496C 142.053,499.568 145.553,504.068 148,509.5C 149.942,511.955 152.442,513.288 155.5,513.5C 155.5,514.5 155.5,515.5 155.5,516.5C 158.901,517.036 161.901,518.369 164.5,520.5C 165.397,521.598 166.23,521.598 167,520.5C 168.252,522.001 169.252,523.668 170,525.5C 172.606,522.892 174.939,523.225 177,526.5C 178.087,524.068 178.587,524.402 178.5,527.5C 180.144,527.714 181.644,527.38 183,526.5C 183.915,527.328 184.581,528.328 185,529.5C 185.342,527.381 186.175,527.047 187.5,528.5C 192.833,529.833 198.167,531.167 203.5,532.5C 203.263,533.791 203.596,534.791 204.5,535.5C 205.688,536.048 206.855,536.381 208,536.5C 209.298,537.946 209.465,539.279 208.5,540.5C 188.364,537.011 169.364,530.344 151.5,520.5C 134.703,506.878 120.703,490.878 109.5,472.5 Z"/></g>
<g><path style="opacity:0.918" fill="#b33721" d="M 195.5,495.5 C 196.71,495.932 197.71,496.599 198.5,497.5C 196.821,497.715 195.821,497.048 195.5,495.5 Z"/></g>
<g><path style="opacity:1" fill="#9e311e" d="M 98.5,459.5 C 98.8333,459.5 99.1667,459.5 99.5,459.5C 102.833,463.833 106.167,468.167 109.5,472.5C 120.703,490.878 134.703,506.878 151.5,520.5C 150.833,520.5 150.5,520.833 150.5,521.5C 141.942,515.449 134.109,508.449 127,500.5C 116.475,487.487 106.975,473.82 98.5,459.5 Z"/></g>
<g><path style="opacity:1" fill="#e2452a" d="M 458.5,493.5 C 459.525,493.897 459.692,494.563 459,495.5C 456.492,498.531 453.992,501.531 451.5,504.5C 444.715,510.282 437.382,515.282 429.5,519.5C 429.176,516.306 430.342,515.306 433,516.5C 433.424,513.975 434.59,511.975 436.5,510.5C 438.417,508.667 440.251,506.667 442,504.5C 442.483,503.552 442.649,502.552 442.5,501.5C 445.368,501.915 447.535,500.915 449,498.5C 449.333,498.833 449.667,499.167 450,499.5C 450.483,498.552 450.649,497.552 450.5,496.5C 454.038,496.35 456.704,495.35 458.5,493.5 Z"/></g>
<g><path style="opacity:1" fill="#c93e25" d="M 436.5,510.5 C 434.59,511.975 433.424,513.975 433,516.5C 430.342,515.306 429.176,516.306 429.5,519.5C 429.5,520.167 429.167,520.5 428.5,520.5C 428.586,519.504 428.252,518.671 427.5,518C 425.115,517.444 422.782,517.61 420.5,518.5C 420.62,517.414 421.287,516.747 422.5,516.5C 425.865,515.477 429.198,514.477 432.5,513.5C 432.5,512.5 432.5,511.5 432.5,510.5C 433.833,510.5 435.167,510.5 436.5,510.5 Z"/></g>
<g><path style="opacity:1" fill="#e6472b" d="M 428.5,520.5 C 424.957,522.438 421.29,524.105 417.5,525.5C 417.15,522.547 418.15,520.213 420.5,518.5C 422.782,517.61 425.115,517.444 427.5,518C 428.252,518.671 428.586,519.504 428.5,520.5 Z"/></g>
<g><path style="opacity:0.945" fill="#972f1c" d="M 451.5,504.5 C 451.5,505.167 451.5,505.833 451.5,506.5C 429.717,524.552 404.717,535.885 376.5,540.5C 375.432,539.566 374.099,539.232 372.5,539.5C 387.435,536.414 402.102,532.081 416.5,526.5C 417.167,526.5 417.5,526.167 417.5,525.5C 421.29,524.105 424.957,522.438 428.5,520.5C 429.167,520.5 429.5,520.167 429.5,519.5C 437.382,515.282 444.715,510.282 451.5,504.5 Z"/></g>
<g><path style="opacity:1" fill="#c83d25" d="M 164.5,520.5 C 165.946,519.387 167.613,519.22 169.5,520C 172.389,522.39 175.723,523.557 179.5,523.5C 179.351,524.552 179.517,525.552 180,526.5C 181.726,525.424 183.559,525.257 185.5,526C 186.756,526.417 187.423,527.25 187.5,528.5C 186.175,527.047 185.342,527.381 185,529.5C 184.581,528.328 183.915,527.328 183,526.5C 181.644,527.38 180.144,527.714 178.5,527.5C 178.587,524.402 178.087,524.068 177,526.5C 174.939,523.225 172.606,522.892 170,525.5C 169.252,523.668 168.252,522.001 167,520.5C 166.23,521.598 165.397,521.598 164.5,520.5 Z"/></g>
<g><path style="opacity:1" fill="#c73d25" d="M 420.5,518.5 C 418.15,520.213 417.15,522.547 417.5,525.5C 417.5,526.167 417.167,526.5 416.5,526.5C 416.5,525.5 416.5,524.5 416.5,523.5C 414.473,523.338 412.473,523.505 410.5,524C 409.874,524.75 409.374,525.584 409,526.5C 407.484,523.949 406.651,524.282 406.5,527.5C 404.5,527.5 402.5,527.5 400.5,527.5C 401.183,525.824 402.517,525.157 404.5,525.5C 404.5,524.5 404.5,523.5 404.5,522.5C 405.822,522.33 406.989,522.663 408,523.5C 408.388,522.572 409.055,521.905 410,521.5C 412.009,521.995 414.176,521.995 416.5,521.5C 416.5,520.5 416.5,519.5 416.5,518.5C 417.833,518.5 419.167,518.5 420.5,518.5 Z"/></g>
<g><path style="opacity:1" fill="#c03b23" d="M 399.5,528.5 C 398.21,529.058 397.377,530.058 397,531.5C 396.261,530.426 395.261,529.759 394,529.5C 392.85,530.424 391.85,530.424 391,529.5C 390.019,532.655 388.685,532.988 387,530.5C 386.23,531.598 385.397,531.598 384.5,530.5C 384.47,529.503 384.97,528.836 386,528.5C 390.689,527.597 395.189,527.597 399.5,528.5 Z"/></g>
<g><path style="opacity:1" fill="#bd3a23" d="M 383.5,531.5 C 382.469,532.249 381.302,532.915 380,533.5C 378.442,532.655 377.442,533.321 377,535.5C 376.333,534.833 375.667,534.167 375,533.5C 374.23,534.598 373.397,534.598 372.5,533.5C 372.47,532.503 372.97,531.836 374,531.5C 377.216,531.392 380.382,531.392 383.5,531.5 Z"/></g>
<g><path style="opacity:1" fill="#bf3a23" d="M 355.5,535.5 C 354.21,536.058 353.377,537.058 353,538.5C 352.333,537.833 351.667,537.167 351,536.5C 350.23,537.598 349.397,537.598 348.5,536.5C 348.47,535.503 348.97,534.836 350,534.5C 351.891,534.687 353.725,535.021 355.5,535.5 Z"/></g>
<g><path style="opacity:0.98" fill="#8a2a1a" d="M 151.5,520.5 C 169.364,530.344 188.364,537.011 208.5,540.5C 209.209,541.404 210.209,541.737 211.5,541.5C 224.734,543.914 238.067,545.581 251.5,546.5C 249.052,547.473 246.385,547.806 243.5,547.5C 217.226,546.279 191.893,540.779 167.5,531C 161.448,528.313 155.781,525.146 150.5,521.5C 150.5,520.833 150.833,520.5 151.5,520.5 Z"/></g>
<g><path style="opacity:1" fill="#c53c24" d="M 204.5,535.5 C 207.474,533.933 209.974,534.6 212,537.5C 215.977,536.582 219.811,536.916 223.5,538.5C 220.552,539.729 217.719,539.396 215,537.5C 213.491,538.09 211.991,538.756 210.5,539.5C 210.863,540.183 211.196,540.85 211.5,541.5C 210.209,541.737 209.209,541.404 208.5,540.5C 209.465,539.279 209.298,537.946 208,536.5C 206.855,536.381 205.688,536.048 204.5,535.5 Z"/></g>
<g><path style="opacity:1" fill="#bf3a23" d="M 347.5,537.5 C 346.469,538.249 345.302,538.915 344,539.5C 342.442,538.655 341.442,539.321 341,541.5C 340.333,540.833 339.667,540.167 339,539.5C 338.23,540.598 337.397,540.598 336.5,539.5C 336.47,538.503 336.97,537.836 338,537.5C 341.216,537.392 344.382,537.392 347.5,537.5 Z"/></g>
<g><path style="opacity:1" fill="#e6472b" d="M 416.5,526.5 C 402.102,532.081 387.435,536.414 372.5,539.5C 354.797,542.587 337.131,544.92 319.5,546.5C 297.182,547.409 274.849,547.743 252.5,547.5C 252.5,546.833 252.167,546.5 251.5,546.5C 238.067,545.581 224.734,543.914 211.5,541.5C 211.196,540.85 210.863,540.183 210.5,539.5C 211.991,538.756 213.491,538.09 215,537.5C 217.719,539.396 220.552,539.729 223.5,538.5C 241.167,537.167 258.833,537.167 276.5,538.5C 290.315,542.516 304.648,543.516 319.5,541.5C 321.912,541.669 324.079,541.003 326,539.5C 329.749,540.325 333.249,540.325 336.5,539.5C 337.397,540.598 338.23,540.598 339,539.5C 339.667,540.167 340.333,540.833 341,541.5C 341.442,539.321 342.442,538.655 344,539.5C 345.302,538.915 346.469,538.249 347.5,537.5C 348.167,537.5 348.5,537.167 348.5,536.5C 349.397,537.598 350.23,537.598 351,536.5C 351.667,537.167 352.333,537.833 353,538.5C 353.377,537.058 354.21,536.058 355.5,535.5C 361.386,534.241 367.052,533.574 372.5,533.5C 373.397,534.598 374.23,534.598 375,533.5C 375.667,534.167 376.333,534.833 377,535.5C 377.442,533.321 378.442,532.655 380,533.5C 381.302,532.915 382.469,532.249 383.5,531.5C 384.167,531.5 384.5,531.167 384.5,530.5C 385.397,531.598 386.23,531.598 387,530.5C 388.685,532.988 390.019,532.655 391,529.5C 391.85,530.424 392.85,530.424 394,529.5C 395.261,529.759 396.261,530.426 397,531.5C 397.377,530.058 398.21,529.058 399.5,528.5C 400.167,528.5 400.5,528.167 400.5,527.5C 402.5,527.5 404.5,527.5 406.5,527.5C 406.651,524.282 407.484,523.949 409,526.5C 409.374,525.584 409.874,524.75 410.5,524C 412.473,523.505 414.473,523.338 416.5,523.5C 416.5,524.5 416.5,525.5 416.5,526.5 Z"/></g>
<g><path style="opacity:1" fill="#c23b24" d="M 276.5,538.5 C 277.097,537.861 277.93,537.528 279,537.5C 284.548,539.471 290.214,540.804 296,541.5C 303.951,541.402 311.785,541.402 319.5,541.5C 304.648,543.516 290.315,542.516 276.5,538.5 Z"/></g>
<g><path style="opacity:1" fill="#902c1b" d="M 372.5,539.5 C 374.099,539.232 375.432,539.566 376.5,540.5C 359.191,544.54 341.524,546.873 323.5,547.5C 322.432,546.566 321.099,546.232 319.5,546.5C 337.131,544.92 354.797,542.587 372.5,539.5 Z"/></g>
<g><path style="opacity:0.773" fill="#a9341f" d="M 251.5,546.5 C 252.167,546.5 252.5,546.833 252.5,547.5C 252.5,547.833 252.5,548.167 252.5,548.5C 249.287,548.81 246.287,548.477 243.5,547.5C 246.385,547.806 249.052,547.473 251.5,546.5 Z"/></g>
<g><path style="opacity:1" fill="#912c1b" d="M 319.5,546.5 C 321.099,546.232 322.432,546.566 323.5,547.5C 299.912,549.625 276.245,549.958 252.5,548.5C 252.5,548.167 252.5,547.833 252.5,547.5C 274.849,547.743 297.182,547.409 319.5,546.5 Z"/></g>
</svg>
